# xmcd
#
# Track frame offsets:
#  150
#  18955
#  37200
#  54990
#  68000
#  79900
#  94530
#  110752
#  126090
#  140425
#  159100
#  177262
#  192512
#  208460
#  224635
#  238120
#  257512
#  278970
#
# Disc length: 3907 seconds
#
# Revision: 1
# Processed by: cddbd v1.5.2PL0 Copyright (c) Steve Scherf et al.
# Submitted via: Collectorz.com_Music_Collector 6.11
#
DISCID=0d0f4112
DTITLE=Eric Clapton - Slowhand Blues (2CDs) [CD1)
DYEAR=1993
DGENRE=Blues
TTITLE0=How Long
TTITLE1=Alabama Women
TTITLE2=Terraplane Blues
TTITLE3=From Four Until Late
TTITLE4=Kidman Blues
TTITLE5=Country Jail Blues
TTITLE6=32-30
TTITLE7=Chicago Breakdown
TTITLE8=Hey, Hey
TTITLE9=Walkin' Blues
TTITLE10=Long Distance Call
TTITLE11=Blow Wind Blow
TTITLE12=Key To The Highway
TTITLE13=Tell Me Mama
TTITLE14=Juke
TTITLE15=Blues Leave Me Alone
TTITLE16=Goin' Away Baby
TTITLE17=Comin' Home
EXTD=
EXTT0=
EXTT1=
EXTT2=
EXTT3=
EXTT4=
EXTT5=
EXTT6=
EXTT7=
EXTT8=
EXTT9=
EXTT10=
EXTT11=
EXTT12=
EXTT13=
EXTT14=
EXTT15=
EXTT16=
EXTT17=
PLAYORDER=
